<svg width="17" height="17" viewBox="0 0 17 17" fill="none" xmlns="http://www.w3.org/2000/svg">
<path d="M14.0373 0H2.96683C1.32812 0 0.00408654 1.32812 0 2.96274V14.0332C0 15.6719 1.32812 16.9959 2.96274 17H14.0332C15.6719 17 16.9959 15.6719 17 14.0373V2.96683C17 1.32812 15.6719 0 14.0373 0ZM16.1827 14.0373C16.1827 15.2224 15.2224 16.1827 14.0373 16.1827H2.96683C1.78173 16.1827 0.821394 15.2224 0.817308 14.0373V2.96683C0.817308 1.78173 1.77764 0.821394 2.96274 0.817308H14.0332C15.2183 0.817308 16.1786 1.77764 16.1827 2.96274V14.0373Z" fill="white"/>
<path d="M6.37097 11.4832H4.86304V10.2041C4.86304 9.9793 4.67915 9.79541 4.45439 9.79541C4.22963 9.79541 4.04573 9.9793 4.04573 10.2041V11.4832H2.5378C2.31304 11.4832 2.12915 11.667 2.12915 11.8918C2.12915 12.1166 2.31304 12.3005 2.5378 12.3005H4.04573V13.8247C4.04573 14.0495 4.22963 14.2334 4.45439 14.2334C4.67915 14.2334 4.86304 14.0495 4.86304 13.8247V12.3005H6.37097C6.59573 12.3005 6.77963 12.1166 6.77963 11.8918C6.77963 11.667 6.59573 11.4832 6.37097 11.4832Z" fill="white"/>
<path d="M6.37097 4.45435H2.5378C2.31304 4.45435 2.12915 4.63824 2.12915 4.863C2.12915 5.08775 2.31304 5.27165 2.5378 5.27165H6.37097C6.59573 5.27165 6.77963 5.08775 6.77963 4.863C6.77963 4.63824 6.59573 4.45435 6.37097 4.45435Z" fill="white"/>
<path d="M14.0372 10.8702H10.2041C9.9793 10.8702 9.79541 11.0541 9.79541 11.2789C9.79541 11.5037 9.9793 11.6875 10.2041 11.6875H14.0372C14.262 11.6875 14.4459 11.5037 14.4459 11.2789C14.4459 11.0541 14.262 10.8702 14.0372 10.8702Z" fill="white"/>
<path d="M13.8778 5.89682C13.8778 5.89682 13.8778 5.89682 13.8737 5.89273L12.7785 4.79754L13.8737 3.70235C14.0331 3.54298 14.0331 3.28553 13.8737 3.12615C13.7143 2.96678 13.4569 2.96678 13.2975 3.12615L12.2023 4.22134L11.1071 3.12615C10.9478 2.96678 10.6903 2.96678 10.5309 3.12206C10.3716 3.28144 10.3716 3.53889 10.5268 3.69827C10.5268 3.69827 10.5268 3.69826 10.5309 3.70235L11.6261 4.79754L10.5309 5.89273C10.3716 6.04802 10.3716 6.30956 10.5309 6.46894C10.6903 6.62831 10.9478 6.62831 11.1071 6.46894L12.2023 5.37374L13.2975 6.46894C13.4569 6.62831 13.7143 6.62831 13.8737 6.47302C14.0331 6.31365 14.0331 6.0562 13.8778 5.89682Z" fill="white"/>
</svg>