<svg width="42" height="40" viewBox="0 0 42 40" fill="none" xmlns="http://www.w3.org/2000/svg">
<path d="M0 0H38C40.2091 0 42 1.79086 42 4V36C42 38.2091 40.2091 40 38 40H0V0Z" fill="url(#paint0_linear)"/>
<g clip-path="url(#clip0)">
<path d="M18.1085 20.7925C18.1085 20.4793 17.8545 20.2256 17.5411 20.2256H15.5609C15.2478 20.2256 14.9938 20.4793 14.9938 20.7925V22.7724C14.9938 23.086 15.2478 23.3398 15.5609 23.3398H17.5411C17.8545 23.3398 18.1085 23.086 18.1085 22.7724V20.7925Z" fill="white"/>
<path d="M23.0573 20.7925C23.0573 20.4793 22.8033 20.2256 22.4904 20.2256H20.51C20.1969 20.2256 19.9429 20.4793 19.9429 20.7925V22.7724C19.9429 23.086 20.1969 23.3398 20.51 23.3398H22.4904C22.8033 23.3398 23.0573 23.086 23.0573 22.7724V20.7925Z" fill="white"/>
<path d="M28.0064 20.7925C28.0064 20.4793 27.7523 20.2256 27.4392 20.2256H25.459C25.1456 20.2256 24.8916 20.4793 24.8916 20.7925V22.7724C24.8916 23.086 25.1456 23.3398 25.459 23.3398H27.4392C27.7523 23.3398 28.0064 23.086 28.0064 22.7724V20.7925Z" fill="white"/>
<path d="M18.1085 25.7416C18.1085 25.4279 17.8545 25.1744 17.5411 25.1744H15.5609C15.2478 25.1744 14.9938 25.4279 14.9938 25.7416V27.7211C14.9938 28.0345 15.2478 28.2883 15.5609 28.2883H17.5411C17.8545 28.2883 18.1085 28.0345 18.1085 27.7211V25.7416Z" fill="white"/>
<path d="M23.0573 25.7416C23.0573 25.4279 22.8033 25.1744 22.4904 25.1744H20.51C20.1969 25.1744 19.9429 25.4279 19.9429 25.7416V27.7211C19.9429 28.0345 20.1969 28.2883 20.51 28.2883H22.4904C22.8033 28.2883 23.0573 28.0345 23.0573 27.7211V25.7416Z" fill="white"/>
<path d="M28.0064 25.7416C28.0064 25.4279 27.7523 25.1744 27.4395 25.1744H25.459C25.1456 25.1744 24.8916 25.4279 24.8916 25.7416V27.7211C24.8916 28.0345 25.1456 28.2883 25.459 28.2883H27.4395C27.7523 28.2883 28.0064 28.0345 28.0064 27.7211V25.7416Z" fill="white"/>
<path d="M31.547 9.78387V12.808C31.547 14.1749 30.4381 15.2764 29.0714 15.2764H27.5097C26.143 15.2764 25.0194 14.1749 25.0194 12.808V9.77301H17.9806V12.808C17.9806 14.1749 16.8571 15.2764 15.4905 15.2764H13.9285C12.5619 15.2764 11.4531 14.1749 11.4531 12.808V9.78387C10.2586 9.81987 9.2771 10.8082 9.2771 12.0231V29.7461C9.2771 30.9838 10.2803 32.0003 11.5179 32.0003H31.482C32.7178 32.0003 33.7229 30.9817 33.7229 29.7461V12.0231C33.7229 10.8082 32.7414 9.81987 31.547 9.78387ZM30.8216 28.6425C30.8216 29.1773 30.3879 29.6113 29.8529 29.6113H13.1044C12.5694 29.6113 12.1357 29.1773 12.1357 28.6425V19.4879C12.1357 18.9528 12.5693 18.5189 13.1044 18.5189H29.8528C30.3879 18.5189 30.8216 18.9528 30.8216 19.4879L30.8216 28.6425Z" fill="white"/>
<path d="M13.9232 13.6549H15.4679C15.9368 13.6549 16.317 13.2754 16.317 12.8065V7.84876C16.317 7.37985 15.9368 7 15.4679 7H13.9232C13.4543 7 13.0742 7.37985 13.0742 7.84876V12.8065C13.0742 13.2754 13.4543 13.6549 13.9232 13.6549Z" fill="white"/>
<path d="M27.4898 13.6549H29.0345C29.5031 13.6549 29.8833 13.2754 29.8833 12.8065V7.84876C29.8833 7.37985 29.5031 7 29.0345 7H27.4898C27.021 7 26.6409 7.37985 26.6409 7.84876V12.8065C26.6409 13.2754 27.021 13.6549 27.4898 13.6549Z" fill="white"/>
</g>
<defs>
<linearGradient id="paint0_linear" x1="21" y1="0" x2="21" y2="40" gradientUnits="userSpaceOnUse">
<stop stop-color="#FF473A"/>
<stop offset="1" stop-color="#F4508E"/>
</linearGradient>
<clipPath id="clip0">
<rect x="9" y="7" width="25" height="25" fill="white"/>
</clipPath>
</defs>
</svg>
