<svg width="17" height="17" viewBox="0 0 17 17" fill="none" xmlns="http://www.w3.org/2000/svg">
<path d="M8.21193 16.0259H3.77793C2.57292 16.0259 1.5952 15.0446 1.5952 13.8432V3.15683C1.5952 1.95183 2.57653 0.974109 3.77793 0.974109H8.28408C8.55467 0.974109 8.77114 0.75764 8.77114 0.487054C8.77114 0.216469 8.55467 0 8.28408 0H3.77793C2.03536 0 0.621094 1.41787 0.621094 3.15683V13.8432C0.621094 15.5857 2.03896 17 3.77793 17H8.21193C8.48251 17 8.69898 16.7835 8.69898 16.5129C8.69898 16.2424 8.4789 16.0259 8.21193 16.0259Z" fill="white"/>
<path d="M16.2359 8.15725L13.1404 5.06175C12.9492 4.87053 12.6425 4.87053 12.4513 5.06175C12.2601 5.25296 12.2601 5.55962 12.4513 5.75084L14.717 8.01654H4.8352C4.56461 8.01654 4.34814 8.23301 4.34814 8.5036C4.34814 8.77418 4.56461 8.99065 4.8352 8.99065H14.717L12.4513 11.2564C12.2601 11.4476 12.2601 11.7542 12.4513 11.9454C12.5451 12.0392 12.6714 12.0898 12.794 12.0898C12.9167 12.0898 13.043 12.0429 13.1368 11.9454L16.2323 8.84995C16.4271 8.65512 16.4271 8.34485 16.2359 8.15725Z" fill="white"/>
</svg>