<svg width="17" height="17" viewBox="0 0 17 17" fill="none" xmlns="http://www.w3.org/2000/svg">
<path d="M14.2383 13.3862H7.09482C6.67596 13.3862 6.33325 13.5854 6.33325 13.8289C6.33325 14.0724 6.67596 14.2716 7.09482 14.2716H14.2383C14.6572 14.2716 14.9999 14.0724 14.9999 13.8289C14.9999 13.5854 14.6572 13.3862 14.2383 13.3862Z" fill="white"/>
<path d="M3.4783 4.4262C4.29474 4.4262 4.9566 3.76434 4.9566 2.9479C4.9566 2.13146 4.29474 1.4696 3.4783 1.4696C2.66186 1.4696 2 2.13146 2 2.9479C2 3.76434 2.66186 4.4262 3.4783 4.4262Z" fill="#F2F2F2"/>
<path d="M3.4783 9.84271C4.29474 9.84271 4.9566 9.18085 4.9566 8.36441C4.9566 7.54797 4.29474 6.88611 3.4783 6.88611C2.66186 6.88611 2 7.54797 2 8.36441C2 9.18085 2.66186 9.84271 3.4783 9.84271Z" fill="#F2F2F2"/>
<path d="M3.4783 15.2595C4.29474 15.2595 4.9566 14.5976 4.9566 13.7812C4.9566 12.9647 4.29474 12.3029 3.4783 12.3029C2.66186 12.3029 2 12.9647 2 13.7812C2 14.5976 2.66186 15.2595 3.4783 15.2595Z" fill="#F2F2F2"/>
<path d="M14.2383 7.9696H7.09482C6.67596 7.9696 6.33325 8.16882 6.33325 8.41231C6.33325 8.6558 6.67596 8.85502 7.09482 8.85502H14.2383C14.6572 8.85502 14.9999 8.6558 14.9999 8.41231C14.9999 8.16882 14.6572 7.9696 14.2383 7.9696Z" fill="white"/>
<path d="M14.2383 2.55298H7.09482C6.67596 2.55298 6.33325 2.7522 6.33325 2.99568C6.33325 3.23917 6.67596 3.43839 7.09482 3.43839H14.2383C14.6572 3.43839 14.9999 3.23917 14.9999 2.99568C14.9999 2.7522 14.6572 2.55298 14.2383 2.55298Z" fill="white"/>
</svg>