<svg xmlns="http://www.w3.org/2000/svg" x="0px" y="0px"
width="20" height="20"
viewBox="0 0 172 172"
style=" fill:#000000;"><g fill="none" fill-rule="nonzero" stroke="none" stroke-width="1" stroke-linecap="butt" stroke-linejoin="miter" stroke-miterlimit="10" stroke-dasharray="" stroke-dashoffset="0" font-family="none" font-weight="none" font-size="none" text-anchor="none" style="mix-blend-mode: normal"><path d="M0,172v-172h172v172z" fill="none"></path><g fill="#ffffff"><path d="M40.13333,22.93333c-3.1648,0 -5.73333,2.56853 -5.73333,5.73333v11.46667h103.2v-11.46667c0,-3.1648 -2.56853,-5.73333 -5.73333,-5.73333zM22.93333,51.6c-6.33533,0 -11.46667,5.13133 -11.46667,11.46667v51.6c0,6.33533 5.13133,11.46667 11.46667,11.46667h11.46667v28.66667h103.2v-28.66667h11.46667c6.33533,0 11.46667,-5.13133 11.46667,-11.46667v-51.6c0,-6.33533 -5.13133,-11.46667 -11.46667,-11.46667zM45.86667,86h80.26667v57.33333h-80.26667z"></path></g></g></svg>