<svg xmlns="http://www.w3.org/2000/svg" x="0px" y="0px"
width="20" height="20"
viewBox="0 0 172 172"
style=" fill:#000000;"><g fill="none" fill-rule="nonzero" stroke="none" stroke-width="1" stroke-linecap="butt" stroke-linejoin="miter" stroke-miterlimit="10" stroke-dasharray="" stroke-dashoffset="0" font-family="none" font-weight="none" font-size="none" text-anchor="none" style="mix-blend-mode: normal"><path d="M0,172v-172h172v172z" fill="none"></path><g fill="#ffffff"><path d="M37.84,6.88v44.72h-20.64c-5.68976,0 -10.32,4.63024 -10.32,10.32v61.92c0,5.68976 4.63024,10.32 10.32,10.32h20.64v30.96h96.32v-30.96h20.64c5.68976,0 10.32,-4.63024 10.32,-10.32v-61.92c0,-5.68976 -4.63024,-10.32 -10.32,-10.32h-20.64v-44.72zM44.72,13.76h82.56v37.84h-82.56zM141.04,68.8c3.8012,0 6.88,3.0788 6.88,6.88c0,3.8012 -3.0788,6.88 -6.88,6.88c-3.8012,0 -6.88,-3.0788 -6.88,-6.88c0,-3.8012 3.0788,-6.88 6.88,-6.88zM44.72,103.2h82.56v30.96v24.08h-82.56v-24.08zM58.48,113.52c-1.24059,-0.01754 -2.39452,0.63425 -3.01993,1.7058c-0.62541,1.07155 -0.62541,2.39684 0,3.46839c0.62541,1.07155 1.77935,1.72335 3.01993,1.7058h55.04c1.24059,0.01754 2.39452,-0.63425 3.01993,-1.7058c0.62541,-1.07155 0.62541,-2.39684 0,-3.46839c-0.62541,-1.07155 -1.77935,-1.72335 -3.01993,-1.7058zM58.48,127.28c-1.24059,-0.01754 -2.39452,0.63425 -3.01993,1.7058c-0.62541,1.07155 -0.62541,2.39684 0,3.46839c0.62541,1.07155 1.77935,1.72335 3.01993,1.7058h41.28c1.24059,0.01754 2.39452,-0.63425 3.01993,-1.7058c0.62541,-1.07155 0.62541,-2.39684 0,-3.46839c-0.62541,-1.07155 -1.77935,-1.72335 -3.01993,-1.7058zM58.48,141.04c-1.24059,-0.01754 -2.39452,0.63425 -3.01993,1.7058c-0.62541,1.07155 -0.62541,2.39684 0,3.46839c0.62541,1.07155 1.77935,1.72335 3.01993,1.7058h55.04c1.24059,0.01754 2.39452,-0.63425 3.01993,-1.7058c0.62541,-1.07155 0.62541,-2.39684 0,-3.46839c-0.62541,-1.07155 -1.77935,-1.72335 -3.01993,-1.7058z"></path></g></g></svg>