<?xml version="1.0" encoding="UTF-8"?>
<svg xmlns="http://www.w3.org/2000/svg" xmlns:xlink="http://www.w3.org/1999/xlink" width="20pt" height="20pt" viewBox="0 0 20 20" version="1.1">
<g id="surface1244318">
<path style=" stroke:none;fill-rule:nonzero;fill:rgb(100%,100%,100%);fill-opacity:1;" d="M 10 2 C 8.019531 2 6.203125 2.722656 4.804688 3.917969 C 4.613281 4.070312 4.519531 4.3125 4.5625 4.550781 C 4.605469 4.792969 4.773438 4.992188 5.003906 5.070312 C 5.234375 5.148438 5.492188 5.09375 5.671875 4.929688 C 6.835938 3.933594 8.34375 3.332031 10 3.332031 C 13.464844 3.332031 16.300781 5.957031 16.632812 9.332031 L 14.667969 9.332031 L 17.332031 13.332031 L 20 9.332031 L 17.964844 9.332031 C 17.625 5.234375 14.183594 2 10 2 Z M 2.667969 6.667969 L 0 10.667969 L 2.035156 10.667969 C 2.375 14.765625 5.816406 18 10 18 C 11.980469 18 13.796875 17.277344 15.195312 16.082031 C 15.386719 15.929688 15.480469 15.6875 15.4375 15.449219 C 15.394531 15.207031 15.226562 15.007812 14.996094 14.929688 C 14.765625 14.851562 14.507812 14.90625 14.328125 15.070312 C 13.164062 16.066406 11.65625 16.667969 10 16.667969 C 6.535156 16.667969 3.699219 14.042969 3.367188 10.667969 L 5.332031 10.667969 Z M 2.667969 6.667969 "/>
</g>
</svg>
