<svg width="1720" height="307" viewBox="0 0 1720 307" fill="none" xmlns="http://www.w3.org/2000/svg">
<path fill-rule="evenodd" clip-rule="evenodd" d="M0 306.697H1720.38V79.8974C1671.52 60.8919 1545.94 99.532 1431.97 134.597C1344.03 161.657 1263 186.588 1229.49 181.257C985.734 225.562 680.211 129.654 489.002 69.6308C409.729 44.7459 350.104 26.0291 322.677 26.0291C193.598 5.06606 72.8986 53.3367 0 122.531V306.697Z" fill="white" fill-opacity="0.48"/>
<path fill-rule="evenodd" clip-rule="evenodd" d="M0.000244141 306.578H1726V23.1266C1661.85 2.36089 1588.96 -5.83409 1513.53 5.66832C1482.62 5.66832 1415.43 25.4751 1326.09 51.8089C1110.6 115.327 766.281 216.819 491.58 169.935C453.811 175.576 362.496 149.194 263.384 120.558C169.668 93.4822 68.9809 64.392 0.000244141 58.4564V306.578Z" fill="white" fill-opacity="0.4"/>
</svg>
