<svg width="1640" height="182" viewBox="0 0 1640 182" fill="none" xmlns="http://www.w3.org/2000/svg">
<g clip-path="url(#clip0)">
<path fill-rule="evenodd" clip-rule="evenodd" d="M-0.237793 5.8489e-09H1640V134.2C1593.48 145.447 1473.89 122.583 1365.38 101.834C1281.64 85.8224 1204.48 71.0705 1172.57 74.2248C940.472 48.0093 649.553 104.759 467.485 140.275C392.001 155 335.227 166.075 309.11 166.075C184.956 178.605 68.9437 149.334 -0.237793 107.725V5.8489e-09Z" fill="#2D7DFA" fill-opacity="0.21"/>
<path d="M1418.99 105.149C1321.68 105.149 834.61 23.5647 476.074 47.03C390.936 42.1538 10.8975 104.908 -48.4613 81.6839C-91.2034 56.4983 -87.1925 6.69833 -70.3171 -16.8394C-47.4955 -34.7326 422.645 -5.76537 476.074 -16.8394C545.217 -28.2646 991.763 -16.8394 991.763 -16.8394C991.763 -16.8394 1740.98 -35.2005 1783.77 -16.8397C1892.76 17.5503 1789.01 77.214 1615.93 98.8592C1556.52 106.29 1488.94 109.24 1418.99 105.149Z" fill="#2D7DFA" fill-opacity="0.4"/>
</g>
<defs>
<clipPath id="clip0">
<path d="M0 14C0 6.26801 6.26801 0 14 0H1626C1633.73 0 1640 6.26801 1640 14V182H0V14Z" fill="white"/>
</clipPath>
</defs>
</svg>
