<svg width="14" height="14" viewBox="0 0 14 14" fill="none" xmlns="http://www.w3.org/2000/svg">
<path d="M13.4166 6.41664H7.58331V0.583343C7.58331 0.261166 7.32214 0 6.99997 0C6.67779 0 6.41662 0.261166 6.41662 0.583343V6.41667H0.583342C0.261166 6.41664 0 6.67781 0 6.99998C0 7.32216 0.261166 7.58333 0.583342 7.58333H6.41666V13.4167C6.41666 13.7388 6.67782 14 7 14C7.32218 14 7.58334 13.7388 7.58334 13.4167V7.58333H13.4167C13.7388 7.58333 14 7.32216 14 6.99998C14 6.67781 13.7388 6.41664 13.4166 6.41664Z" fill="#F2F2F2"/>
</svg>
