<svg width="24" height="25" viewBox="0 0 24 25" fill="none" xmlns="http://www.w3.org/2000/svg">
<path d="M12.1187 13.4394L20.9022 8.26992L19.0606 5.01843L10.2771 10.1878L12.1187 13.4394Z" fill="url(#paint0_linear)"/>
<path d="M22.1652 19.7117C20.636 21.7932 18.4658 23.3228 15.9833 24.0688C13.5008 24.8149 10.8413 24.7367 8.40759 23.8461C5.9739 22.9556 3.89858 21.3013 2.4959 19.1335C1.09304 16.9657 0.439388 14.4029 0.63397 11.8329C0.828219 9.26298 1.86022 6.82586 3.57317 4.891C5.28646 2.95598 7.58748 1.62855 10.1279 1.1097C12.6681 0.590676 15.3095 0.908548 17.6517 2.01494C19.994 3.1215 21.9097 4.95631 23.1084 7.24164L19.3275 9.20029C18.557 7.73182 17.3261 6.55281 15.821 5.84183C14.316 5.13086 12.6188 4.92663 10.9864 5.2601C9.35387 5.59357 7.87545 6.4465 6.7747 7.69002C5.67396 8.9332 5.01082 10.4992 4.88598 12.1507C4.76097 13.8019 5.18093 15.4488 6.08243 16.8417C6.9836 18.2347 8.31721 19.2978 9.88102 19.87C11.4448 20.4423 13.1538 20.4924 14.7491 20.0131C16.3442 19.5336 17.7385 18.5507 18.7213 17.2131L22.1652 19.7117Z" fill="url(#paint1_linear)"/>
<defs>
<linearGradient id="paint0_linear" x1="15.9086" y1="5.01842" x2="15.9086" y2="13.4394" gradientUnits="userSpaceOnUse">
<stop offset="0.00552486" stop-color="#FF473A"/>
<stop offset="1" stop-color="#F4508E"/>
</linearGradient>
<linearGradient id="paint1_linear" x1="12.5299" y1="0.866786" x2="12.5299" y2="24.5765" gradientUnits="userSpaceOnUse">
<stop offset="0.00552486" stop-color="#FF473A"/>
<stop offset="1" stop-color="#F4508E"/>
</linearGradient>
</defs>
</svg>
