<svg xmlns="http://www.w3.org/2000/svg" viewBox="0 0 775 206" fill="none">
<path xmlns="http://www.w3.org/2000/svg" d="M235.015 137.958L287.784 107.532L276.72 88.3947L223.951 118.82L235.015 137.958Z" fill="url(#paint0_linear)"/>
<path xmlns="http://www.w3.org/2000/svg" d="M295.372 174.874C286.185 187.125 273.147 196.128 258.233 200.519C243.319 204.91 227.341 204.45 212.72 199.208C198.099 193.967 185.631 184.23 177.204 171.471C168.776 158.712 164.849 143.628 166.018 128.502C167.185 113.376 173.385 99.0318 183.676 87.6438C193.969 76.2548 207.793 68.4419 223.055 65.3881C238.316 62.3333 254.185 64.2042 268.256 70.7161C282.328 77.229 293.837 88.0282 301.039 101.479L278.324 113.007C273.695 104.364 266.3 97.4247 257.258 93.2401C248.216 89.0555 238.02 87.8535 228.213 89.8162C218.405 91.7789 209.523 96.799 202.91 104.118C196.297 111.435 192.313 120.652 191.563 130.372C190.812 140.091 193.335 149.784 198.751 157.982C204.165 166.181 212.177 172.438 221.572 175.806C230.967 179.174 241.234 179.469 250.818 176.648C260.401 173.826 268.778 168.041 274.682 160.168L295.372 174.874Z" fill="url(#paint1_linear)"/>
<defs>
                        <linearGradient id="paint0_linear" x1="279.238" y1="104.027" x2="225.923" y2="129.673" gradientUnits="userSpaceOnUse">
                            <stop stop-color="#FF473A" />
                            <stop offset="1" stop-color="#F4508E" />
                        </linearGradient>
                        <linearGradient id="paint1_linear" x1="237.486" y1="63.9584" x2="237.486" y2="203.507" gradientUnits="userSpaceOnUse">
                            <stop offset="0.00552486" stop-color="#FF473A" />
                            <stop offset="1" stop-color="#F4508E" />
                        </linearGradient>
                    </defs>
                </svg>