  <svg xmlns="http://www.w3.org/2000/svg" viewBox="0 0 775 206" fill="none">
                    <path d="M32.9413 175.453C34.8586 175.626 37.3858 175.801 40.523 175.975C43.6603 175.975 47.9305 175.975 53.3336 175.975C75.4684 175.975 91.9391 170.405 102.746 159.265C113.726 147.951 119.216 132.199 119.216 112.008C119.216 91.4689 113.9 75.7162 103.268 64.7504C92.6368 53.7846 76.1662 48.3017 53.8564 48.3017C44.096 48.3017 37.1243 48.5628 32.9413 49.085V175.453ZM153.726 112.008C153.726 127.673 151.286 141.337 146.406 152.999C141.526 164.487 134.554 174.147 125.491 181.98C116.602 189.639 105.795 195.383 93.0723 199.212C80.5232 202.867 66.5798 204.695 51.242 204.695C43.9218 204.695 35.6429 204.346 26.4053 203.65C17.1678 203.128 8.36605 201.91 0 199.995V24.2814C8.36605 22.3667 17.255 21.1483 26.6668 20.6262C36.0786 20.104 44.4446 19.8429 51.7649 19.8429C66.9284 19.8429 80.7846 21.6705 93.3337 25.3258C105.883 28.807 116.602 34.3769 125.491 42.0355C134.554 49.5198 141.526 59.0937 146.406 70.7555C151.286 82.2434 153.726 95.9938 153.726 112.008Z" fill="white" />
                    <path d="M362.445 205.217C353.033 205.043 345.19 203.999 338.915 202.084C332.815 200.169 327.935 197.471 324.275 193.99C320.614 190.335 318 185.896 316.431 180.674C315.037 175.279 314.34 169.186 314.34 162.398V5.2218L345.974 0V156.393C345.974 160.222 346.235 163.442 346.758 166.053C347.455 168.664 348.588 170.927 350.157 172.842C351.726 174.582 353.817 175.975 356.432 177.019C359.22 177.89 362.706 178.586 366.889 179.108L362.445 205.217ZM440.583 180.413C450.342 180.413 457.75 179.891 462.805 178.847V143.861C461.061 143.338 458.534 142.816 455.223 142.294C451.911 141.772 448.251 141.511 444.243 141.511C440.757 141.511 437.184 141.772 433.524 142.294C430.038 142.816 426.813 143.773 423.85 145.166C421.061 146.559 418.796 148.56 417.053 151.171C415.309 153.608 414.439 156.741 414.439 160.57C414.439 168.055 416.792 173.276 421.497 176.236C426.203 179.02 432.564 180.413 440.583 180.413ZM437.968 62.6616C448.426 62.6616 457.227 63.9671 464.373 66.578C471.519 69.1889 477.184 72.8441 481.367 77.5437C485.724 82.2433 488.774 87.9873 490.517 94.7757C492.434 101.39 493.393 108.701 493.393 116.707V199.473C488.512 200.517 481.106 201.735 471.171 203.128C461.41 204.695 450.342 205.478 437.968 205.478C429.776 205.478 422.282 204.695 415.484 203.128C408.687 201.561 402.848 199.038 397.968 195.556C393.262 192.075 389.514 187.55 386.726 181.98C384.112 176.41 382.805 169.535 382.805 161.354C382.805 153.521 384.286 146.906 387.249 141.511C390.386 136.115 394.569 131.763 399.798 128.456C405.027 124.975 411.04 122.539 417.837 121.146C424.809 119.579 432.042 118.796 439.537 118.796C443.022 118.796 446.682 119.057 450.517 119.579C454.351 119.928 458.447 120.624 462.805 121.668V116.446C462.805 112.791 462.369 109.309 461.498 106.003C460.626 102.696 459.057 99.8237 456.792 97.3866C454.7 94.7757 451.824 92.7743 448.164 91.3815C444.678 89.9887 440.234 89.2928 434.831 89.2928C427.511 89.2928 420.8 89.815 414.7 90.8593C408.6 91.9037 403.632 93.1218 399.798 94.5146L395.876 68.9278C399.885 67.535 405.724 66.1431 413.393 64.7503C421.061 63.3575 429.253 62.6616 437.968 62.6616ZM532.133 70.4943C538.234 68.754 546.163 67.1001 555.924 65.5336C565.685 63.9671 576.49 63.1838 588.342 63.1838C599.497 63.1838 608.822 64.7503 616.316 67.8834C623.811 70.8427 629.737 75.1066 634.094 80.6768C638.626 86.0724 641.763 92.687 643.506 100.52C645.424 108.179 646.382 116.62 646.382 125.845V202.606H614.748V130.806C614.748 123.496 614.225 117.317 613.179 112.269C612.307 107.047 610.739 102.869 608.473 99.7364C606.382 96.4295 603.418 94.0797 599.584 92.687C595.924 91.1204 591.392 90.3371 585.989 90.3371C581.98 90.3371 577.797 90.5982 573.44 91.1204C569.083 91.6426 565.859 92.0774 563.767 92.4259V202.606H532.133V70.4943ZM719.313 179.891C727.68 179.891 733.779 178.934 737.614 177.019C741.448 174.93 743.366 171.449 743.366 166.575C743.366 162.05 741.274 158.308 737.091 155.349C733.082 152.389 726.372 149.17 716.96 145.688C711.209 143.6 705.893 141.423 701.013 139.161C696.307 136.724 692.21 133.939 688.725 130.806C685.239 127.673 682.451 123.93 680.359 119.579C678.442 115.053 677.483 109.57 677.483 103.131C677.483 90.5982 682.102 80.7641 691.339 73.6274C700.576 66.3169 713.125 62.6616 728.987 62.6616C737.004 62.6616 744.673 63.4449 751.993 65.0114C759.314 66.4042 764.804 67.7961 768.464 69.1888L762.712 94.7757C759.226 93.2091 754.782 91.8163 749.379 90.5982C743.975 89.2054 737.701 88.5095 730.555 88.5095C724.106 88.5095 718.877 89.6412 714.869 91.9037C710.86 93.9924 708.856 97.2992 708.856 101.825C708.856 104.088 709.204 106.09 709.902 107.83C710.773 109.57 712.167 111.224 714.085 112.791C716.001 114.184 718.529 115.663 721.666 117.229C724.804 118.622 728.638 120.101 733.17 121.668C740.664 124.453 747.026 127.238 752.255 130.023C757.484 132.634 761.753 135.679 765.065 139.161C768.551 142.468 771.078 146.298 772.647 150.649C774.216 155 775 160.222 775 166.314C775 179.369 770.119 189.29 760.359 196.079C750.773 202.693 737.004 206 719.052 206C707.026 206 697.353 204.956 690.032 202.867C682.712 200.952 677.57 199.385 674.607 198.167L680.098 171.797C684.804 173.712 690.38 175.54 696.83 177.28C703.452 179.02 710.947 179.891 719.313 179.891Z" fill="white" />
                    <path d="M235.015 137.958L287.784 107.532L276.72 88.3947L223.951 118.82L235.015 137.958Z" fill="url(#paint0_linear)" />
                    <path d="M295.372 174.874C286.185 187.125 273.147 196.128 258.233 200.519C243.319 204.91 227.341 204.45 212.72 199.208C198.099 193.967 185.631 184.23 177.204 171.471C168.776 158.712 164.849 143.628 166.018 128.502C167.185 113.376 173.385 99.0318 183.676 87.6438C193.969 76.2548 207.793 68.4419 223.055 65.3881C238.316 62.3333 254.185 64.2042 268.256 70.7161C282.328 77.229 293.837 88.0282 301.039 101.479L278.324 113.007C273.695 104.364 266.3 97.4247 257.258 93.2401C248.216 89.0555 238.02 87.8535 228.213 89.8162C218.405 91.7789 209.523 96.799 202.91 104.118C196.297 111.435 192.313 120.652 191.563 130.372C190.812 140.091 193.335 149.784 198.751 157.982C204.165 166.181 212.177 172.438 221.572 175.806C230.967 179.174 241.234 179.469 250.818 176.648C260.401 173.826 268.778 168.041 274.682 160.168L295.372 174.874Z" fill="url(#paint1_linear)" />
                    <defs>
                        <linearGradient id="paint0_linear" x1="279.238" y1="104.027" x2="225.923" y2="129.673" gradientUnits="userSpaceOnUse">
                            <stop stop-color="#FF473A" />
                            <stop offset="1" stop-color="#F4508E" />
                        </linearGradient>
                        <linearGradient id="paint1_linear" x1="237.486" y1="63.9584" x2="237.486" y2="203.507" gradientUnits="userSpaceOnUse">
                            <stop offset="0.00552486" stop-color="#FF473A" />
                            <stop offset="1" stop-color="#F4508E" />
                        </linearGradient>
                    </defs>
                </svg>