<svg width="15" height="17" viewBox="0 0 15 17" fill="none" xmlns="http://www.w3.org/2000/svg">
<path d="M11.4231 7.19238H3.5769V7.84623H11.4231V7.19238Z" fill="white"/>
<path d="M11.4231 9.15393H3.5769V9.80778H11.4231V9.15393Z" fill="white"/>
<path d="M11.4231 11.1155H3.5769V11.7693H11.4231V11.1155Z" fill="white"/>
<path d="M7.5 13.077H3.5769V13.7309H7.5V13.077Z" fill="white"/>
<path d="M14.0384 3.92305C14.0384 3.20084 13.4529 2.61536 12.7307 2.61536H10.9153C10.6731 2.34634 10.3621 2.1405 10.0047 2.03768C9.7036 1.95113 9.47189 1.71942 9.38529 1.41836C9.1497 0.599253 8.39479 0 7.49988 0C6.605 0 5.85013 0.599212 5.61458 1.41828C5.52787 1.71971 5.29559 1.95113 4.99416 2.03801C4.63716 2.14091 4.32638 2.34654 4.08441 2.61536H2.26912C1.54687 2.61536 0.961426 3.20084 0.961426 3.92305V15.6923C0.961426 16.4145 1.54687 17 2.26912 17C5.27136 17 8.96119 17 12.7307 17C13.453 17 14.0384 16.4145 14.0384 15.6923C14.0384 11.9785 14.0384 8.42223 14.0384 3.92305ZM4.23071 3.91251C4.23521 3.3377 4.6236 2.82524 5.17524 2.66628C5.69464 2.51663 6.09377 2.11761 6.24293 1.59903C6.403 1.04248 6.91987 0.653849 7.49988 0.653849C8.07992 0.653849 8.59679 1.04248 8.75682 1.59907C8.90606 2.11798 9.30495 2.51687 9.82386 2.66607C10.3804 2.82614 10.7691 3.34305 10.7691 3.92301V4.57686H4.23071V3.91251ZM12.7307 16.3461C9.23854 16.3461 5.7521 16.3461 2.26912 16.3461C1.90857 16.3461 1.61528 16.0528 1.61528 15.6923V3.92305C1.61528 3.56254 1.90857 3.26921 2.26912 3.26921H3.68888C3.61818 3.46912 3.57862 3.68371 3.5769 3.9074V5.23075H11.423V3.92305C11.423 3.69359 11.3825 3.4739 11.3101 3.26921H12.7307C13.0912 3.26921 13.3845 3.56254 13.3845 3.92305C13.3845 5.79237 13.3845 14.5585 13.3846 15.6923C13.3846 16.0528 13.0913 16.3461 12.7307 16.3461Z" fill="white"/>
</svg>