<svg width="17" height="17" viewBox="0 0 17 17" fill="none" xmlns="http://www.w3.org/2000/svg">
<path d="M0.00195312 0.427345V8.1682C0.00195312 8.40446 0.193042 8.59554 0.429298 8.59554C0.665554 8.59554 0.856644 8.40446 0.856644 8.1682V0.851216H16.1507V16.1453H8.78859C8.55233 16.1453 8.36124 16.3364 8.36124 16.5727C8.36124 16.8089 8.55233 17 8.78859 17H16.5711C16.8074 17 16.9985 16.8089 16.9985 16.5727V0.427345C16.9985 0.191089 16.8074 0 16.5711 0H0.429298C0.193042 0 0.00195312 0.191089 0.00195312 0.427345Z" fill="white"/>
<path d="M8.04478 4.72166C7.80852 4.72166 7.61743 4.91275 7.61743 5.14901V8.95342C7.61743 9.18967 7.80852 9.38076 8.04478 9.38076H11.8492C12.0854 9.38076 12.2765 9.18967 12.2765 8.95342C12.2765 8.71716 12.0854 8.52607 11.8492 8.52607H9.07318L13.8921 3.70716C14.0589 3.54039 14.0589 3.27286 13.8921 3.10609C13.7253 2.93933 13.4578 2.93933 13.291 3.10609L8.47212 7.92501V5.14901C8.47212 4.91275 8.28103 4.72166 8.04478 4.72166Z" fill="white"/>
<path d="M0 15.7695C0 16.4473 0.552672 17 1.23053 17H5.56947C6.24733 17 6.8 16.4473 6.8 15.7695V11.4305C6.8 10.7527 6.24733 10.2 5.56947 10.2H1.23359C0.555725 10.2 0.00305343 10.7527 0.00305343 11.4305V15.7695H0ZM0.748092 11.4305C0.748092 11.1649 0.964886 10.9481 1.23053 10.9481H5.56947C5.83511 10.9481 6.05191 11.1649 6.05191 11.4305V15.7695C6.05191 16.0351 5.83511 16.2519 5.56947 16.2519H1.23359C0.967939 16.2519 0.751145 16.0351 0.751145 15.7695V11.4305H0.748092Z" fill="white"/>
</svg>
